%TF.GenerationSoftware,KiCad,Pcbnew,8.0.6*%
%TF.CreationDate,2025-01-04T22:08:08+01:00*%
%TF.ProjectId,hall-tester,68616c6c-2d74-4657-9374-65722e6b6963,rev?*%
%TF.SameCoordinates,Original*%
%TF.FileFunction,Copper,L1,Top*%
%TF.FilePolarity,Positive*%
%FSLAX46Y46*%
G04 Gerber Fmt 4.6, Leading zero omitted, Abs format (unit mm)*
G04 Created by KiCad (PCBNEW 8.0.6) date 2025-01-04 22:08:08*
%MOMM*%
%LPD*%
G01*
G04 APERTURE LIST*
G04 Aperture macros list*
%AMRoundRect*
0 Rectangle with rounded corners*
0 $1 Rounding radius*
0 $2 $3 $4 $5 $6 $7 $8 $9 X,Y pos of 4 corners*
0 Add a 4 corners polygon primitive as box body*
4,1,4,$2,$3,$4,$5,$6,$7,$8,$9,$2,$3,0*
0 Add four circle primitives for the rounded corners*
1,1,$1+$1,$2,$3*
1,1,$1+$1,$4,$5*
1,1,$1+$1,$6,$7*
1,1,$1+$1,$8,$9*
0 Add four rect primitives between the rounded corners*
20,1,$1+$1,$2,$3,$4,$5,0*
20,1,$1+$1,$4,$5,$6,$7,0*
20,1,$1+$1,$6,$7,$8,$9,0*
20,1,$1+$1,$8,$9,$2,$3,0*%
G04 Aperture macros list end*
%TA.AperFunction,ComponentPad*%
%ADD10O,1.700000X1.700000*%
%TD*%
%TA.AperFunction,ComponentPad*%
%ADD11R,1.700000X1.700000*%
%TD*%
%TA.AperFunction,SMDPad,CuDef*%
%ADD12RoundRect,0.250000X-0.350000X-0.450000X0.350000X-0.450000X0.350000X0.450000X-0.350000X0.450000X0*%
%TD*%
%TA.AperFunction,SMDPad,CuDef*%
%ADD13RoundRect,0.250000X-0.250000X0.750000X-0.250000X-0.750000X0.250000X-0.750000X0.250000X0.750000X0*%
%TD*%
%TA.AperFunction,SMDPad,CuDef*%
%ADD14O,3.500000X1.524000*%
%TD*%
%TA.AperFunction,ViaPad*%
%ADD15C,0.600000*%
%TD*%
%TA.AperFunction,Conductor*%
%ADD16C,0.200000*%
%TD*%
G04 APERTURE END LIST*
D10*
%TO.P,J1,8,Pin_8*%
%TO.N,Net-(J1-Pin_8)*%
X108015000Y-60960000D03*
%TO.P,J1,7,Pin_7*%
%TO.N,Net-(J1-Pin_7)*%
X105475000Y-60960000D03*
%TO.P,J1,6,Pin_6*%
%TO.N,Net-(J1-Pin_6)*%
X108015000Y-63500000D03*
%TO.P,J1,5,Pin_5*%
%TO.N,Net-(D3-A)*%
X105475000Y-63500000D03*
%TO.P,J1,4,Pin_4*%
%TO.N,Net-(J1-Pin_4)*%
X108015000Y-66040000D03*
%TO.P,J1,3,Pin_3*%
%TO.N,Net-(D2-A)*%
X105475000Y-66040000D03*
%TO.P,J1,2,Pin_2*%
%TO.N,Net-(D1-A)*%
X108015000Y-68580000D03*
D11*
%TO.P,J1,1,Pin_1*%
%TO.N,Net-(J1-Pin_1)*%
X105475000Y-68580000D03*
%TD*%
D12*
%TO.P,R3,1*%
%TO.N,GND*%
X97790000Y-60325000D03*
%TO.P,R3,2*%
%TO.N,Net-(D3-K)*%
X99790000Y-60325000D03*
%TD*%
%TO.P,R2,1*%
%TO.N,GND*%
X97790000Y-65865000D03*
%TO.P,R2,2*%
%TO.N,Net-(D2-K)*%
X99790000Y-65865000D03*
%TD*%
%TO.P,R1,1*%
%TO.N,GND*%
X97790000Y-71580000D03*
%TO.P,R1,2*%
%TO.N,Net-(D1-K)*%
X99790000Y-71580000D03*
%TD*%
D11*
%TO.P,J3,1,Pin_1*%
%TO.N,GND*%
X107950000Y-73660000D03*
%TD*%
D13*
%TO.P,D3,1,K*%
%TO.N,Net-(D3-K)*%
X101568000Y-60325000D03*
%TO.P,D3,2,A*%
%TO.N,Net-(D3-A)*%
X101568000Y-63325000D03*
%TD*%
%TO.P,D2,1,K*%
%TO.N,Net-(D2-K)*%
X101568000Y-65865000D03*
%TO.P,D2,2,A*%
%TO.N,Net-(D2-A)*%
X101568000Y-68865000D03*
%TD*%
%TO.P,D1,1,K*%
%TO.N,Net-(D1-K)*%
X101568000Y-71604000D03*
%TO.P,D1,2,A*%
%TO.N,Net-(D1-A)*%
X101568000Y-74604000D03*
%TD*%
D14*
%TO.P,J2,8,Pin_8*%
%TO.N,Net-(J1-Pin_8)*%
X93599000Y-60960000D03*
%TO.P,J2,6,Pin_6*%
%TO.N,Net-(J1-Pin_6)*%
X93599000Y-63500000D03*
%TO.P,J2,4,Pin_4*%
%TO.N,Net-(J1-Pin_4)*%
X93599000Y-66040000D03*
%TO.P,J2,2,Pin_2*%
%TO.N,Net-(D1-A)*%
X93599000Y-68580000D03*
%TD*%
D15*
%TO.N,GND*%
X97790000Y-68326000D03*
X97790000Y-62865000D03*
X97790000Y-71580000D03*
X97790000Y-65865000D03*
X97790000Y-60325000D03*
%TD*%
D16*
%TO.N,Net-(D1-A)*%
X93599000Y-68580000D02*
X94488000Y-67691000D01*
X94488000Y-67691000D02*
X98609256Y-67691000D01*
X101083256Y-70165000D02*
X106190000Y-70165000D01*
X98609256Y-67691000D02*
X101083256Y-70165000D01*
X106190000Y-70165000D02*
X106625000Y-69730000D01*
X106625000Y-69730000D02*
X106625000Y-68072000D01*
X106625000Y-68072000D02*
X107507000Y-68072000D01*
X107507000Y-68072000D02*
X108015000Y-68580000D01*
%TO.N,Net-(J1-Pin_4)*%
X93599000Y-66040000D02*
X94742000Y-67183000D01*
X94742000Y-67183000D02*
X102362000Y-67183000D01*
X102362000Y-67183000D02*
X104655000Y-64890000D01*
X104655000Y-64890000D02*
X106865000Y-64890000D01*
X106865000Y-64890000D02*
X108015000Y-66040000D01*
%TO.N,Net-(J1-Pin_6)*%
X95550080Y-61722000D02*
X104610654Y-61722000D01*
%TO.N,Net-(J1-Pin_8)*%
X95534000Y-59025000D02*
X106080000Y-59025000D01*
%TO.N,GND*%
X97790000Y-68326000D02*
X97790000Y-71580000D01*
X97790000Y-62865000D02*
X97790000Y-65865000D01*
%TO.N,Net-(J1-Pin_6)*%
X106745000Y-62230000D02*
X108015000Y-63500000D01*
X104610654Y-61722000D02*
X105118654Y-62230000D01*
X105118654Y-62230000D02*
X106745000Y-62230000D01*
%TO.N,Net-(J1-Pin_8)*%
X106080000Y-59025000D02*
X108015000Y-60960000D01*
%TO.N,Net-(D3-K)*%
X101568000Y-60325000D02*
X99790000Y-60325000D01*
%TO.N,Net-(D2-K)*%
X101568000Y-65865000D02*
X99790000Y-65865000D01*
%TO.N,Net-(D1-K)*%
X101568000Y-71604000D02*
X99814000Y-71604000D01*
X99814000Y-71604000D02*
X99790000Y-71580000D01*
%TO.N,Net-(D1-A)*%
X101568000Y-74604000D02*
X101991000Y-74604000D01*
X101991000Y-74604000D02*
X108015000Y-68580000D01*
%TO.N,Net-(D2-A)*%
X101568000Y-68865000D02*
X104393000Y-66040000D01*
X104393000Y-66040000D02*
X105475000Y-66040000D01*
%TO.N,Net-(D3-A)*%
X101568000Y-63325000D02*
X105299999Y-63325000D01*
X105299999Y-63325000D02*
X105475000Y-63500001D01*
%TO.N,Net-(J1-Pin_6)*%
X93599000Y-63500000D02*
X95077000Y-62022000D01*
X95077000Y-62022000D02*
X95250080Y-62022000D01*
X95250080Y-62022000D02*
X95550080Y-61722000D01*
%TO.N,Net-(J1-Pin_8)*%
X93599000Y-60960000D02*
X95534000Y-59025000D01*
%TD*%
%TA.AperFunction,Conductor*%
%TO.N,GND*%
G36*
X98376198Y-68311185D02*
G01*
X98396840Y-68327819D01*
X100236840Y-70167819D01*
X100270325Y-70229142D01*
X100265341Y-70298834D01*
X100223469Y-70354767D01*
X100158005Y-70379184D01*
X100149159Y-70379500D01*
X99389998Y-70379500D01*
X99389980Y-70379501D01*
X99287203Y-70390000D01*
X99287200Y-70390001D01*
X99120668Y-70445185D01*
X99120663Y-70445187D01*
X98971345Y-70537287D01*
X98877327Y-70631305D01*
X98816003Y-70664789D01*
X98746312Y-70659805D01*
X98701965Y-70631304D01*
X98608345Y-70537684D01*
X98459124Y-70445643D01*
X98459119Y-70445641D01*
X98292697Y-70390494D01*
X98292690Y-70390493D01*
X98189986Y-70380000D01*
X98040000Y-70380000D01*
X98040000Y-72779999D01*
X98189972Y-72779999D01*
X98189986Y-72779998D01*
X98292697Y-72769505D01*
X98459119Y-72714358D01*
X98459124Y-72714356D01*
X98608342Y-72622317D01*
X98701964Y-72528695D01*
X98763287Y-72495210D01*
X98832979Y-72500194D01*
X98877327Y-72528695D01*
X98971344Y-72622712D01*
X99120666Y-72714814D01*
X99287203Y-72769999D01*
X99389991Y-72780500D01*
X100190008Y-72780499D01*
X100190016Y-72780498D01*
X100190019Y-72780498D01*
X100246302Y-72774748D01*
X100292797Y-72769999D01*
X100459334Y-72714814D01*
X100498268Y-72690799D01*
X100565659Y-72672359D01*
X100632322Y-72693281D01*
X100668903Y-72731241D01*
X100725288Y-72822656D01*
X100849344Y-72946712D01*
X100933243Y-72998461D01*
X100979967Y-73050409D01*
X100991190Y-73119372D01*
X100963346Y-73183454D01*
X100933243Y-73209539D01*
X100849342Y-73261289D01*
X100725289Y-73385342D01*
X100633187Y-73534663D01*
X100633186Y-73534666D01*
X100578001Y-73701203D01*
X100578001Y-73701204D01*
X100578000Y-73701204D01*
X100567500Y-73803983D01*
X100567500Y-75404001D01*
X100567501Y-75404018D01*
X100578000Y-75506796D01*
X100578001Y-75506799D01*
X100587842Y-75536496D01*
X100590244Y-75606324D01*
X100554512Y-75666366D01*
X100491992Y-75697559D01*
X100470136Y-75699500D01*
X99953676Y-75699500D01*
X99886637Y-75679815D01*
X99865995Y-75663181D01*
X97182942Y-72980128D01*
X97149457Y-72918805D01*
X97154441Y-72849113D01*
X97196313Y-72793180D01*
X97261777Y-72768763D01*
X97283226Y-72769089D01*
X97390019Y-72779999D01*
X97539999Y-72779999D01*
X97540000Y-72779998D01*
X97540000Y-71830000D01*
X96690001Y-71830000D01*
X96690001Y-72079989D01*
X96700910Y-72186775D01*
X96688140Y-72255468D01*
X96640259Y-72306352D01*
X96572469Y-72323272D01*
X96506293Y-72300856D01*
X96489871Y-72287057D01*
X95282827Y-71080013D01*
X96690000Y-71080013D01*
X96690000Y-71330000D01*
X97540000Y-71330000D01*
X97540000Y-70380000D01*
X97390027Y-70380000D01*
X97390012Y-70380001D01*
X97287302Y-70390494D01*
X97120880Y-70445641D01*
X97120875Y-70445643D01*
X96971654Y-70537684D01*
X96847684Y-70661654D01*
X96755643Y-70810875D01*
X96755641Y-70810880D01*
X96700494Y-70977302D01*
X96700493Y-70977309D01*
X96690000Y-71080013D01*
X95282827Y-71080013D01*
X94256995Y-70054181D01*
X94223510Y-69992858D01*
X94228494Y-69923166D01*
X94270366Y-69867233D01*
X94335830Y-69842816D01*
X94344676Y-69842500D01*
X94686360Y-69842500D01*
X94686361Y-69842500D01*
X94882636Y-69811413D01*
X95071632Y-69750005D01*
X95248694Y-69659787D01*
X95409464Y-69542981D01*
X95549981Y-69402464D01*
X95666787Y-69241694D01*
X95757005Y-69064632D01*
X95818413Y-68875636D01*
X95849500Y-68679361D01*
X95849500Y-68480639D01*
X95842255Y-68434897D01*
X95851209Y-68365605D01*
X95896205Y-68312153D01*
X95962957Y-68291513D01*
X95964728Y-68291500D01*
X98309159Y-68291500D01*
X98376198Y-68311185D01*
G37*
%TD.AperFunction*%
%TA.AperFunction,Conductor*%
G36*
X108675956Y-69841884D02*
G01*
X108714196Y-69900360D01*
X108719500Y-69936239D01*
X108719500Y-72186000D01*
X108699815Y-72253039D01*
X108647011Y-72298794D01*
X108595500Y-72310000D01*
X108200000Y-72310000D01*
X108200000Y-73226988D01*
X108142993Y-73194075D01*
X108015826Y-73160000D01*
X107884174Y-73160000D01*
X107757007Y-73194075D01*
X107700000Y-73226988D01*
X107700000Y-72310000D01*
X107052155Y-72310000D01*
X106992627Y-72316401D01*
X106992620Y-72316403D01*
X106857913Y-72366645D01*
X106857906Y-72366649D01*
X106742812Y-72452809D01*
X106742809Y-72452812D01*
X106656649Y-72567906D01*
X106656645Y-72567913D01*
X106606403Y-72702620D01*
X106606401Y-72702627D01*
X106600000Y-72762155D01*
X106600000Y-73410000D01*
X107516988Y-73410000D01*
X107484075Y-73467007D01*
X107450000Y-73594174D01*
X107450000Y-73725826D01*
X107484075Y-73852993D01*
X107516988Y-73910000D01*
X106600000Y-73910000D01*
X106600000Y-74557844D01*
X106606401Y-74617372D01*
X106606403Y-74617379D01*
X106656645Y-74752086D01*
X106656649Y-74752093D01*
X106742809Y-74867187D01*
X106742812Y-74867190D01*
X106857906Y-74953350D01*
X106857913Y-74953354D01*
X106992620Y-75003596D01*
X106992627Y-75003598D01*
X107052155Y-75009999D01*
X107052172Y-75010000D01*
X107700000Y-75010000D01*
X107700000Y-74093012D01*
X107757007Y-74125925D01*
X107884174Y-74160000D01*
X108015826Y-74160000D01*
X108142993Y-74125925D01*
X108200000Y-74093012D01*
X108200000Y-75010000D01*
X108595500Y-75010000D01*
X108662539Y-75029685D01*
X108708294Y-75082489D01*
X108719500Y-75134000D01*
X108719500Y-75306324D01*
X108699815Y-75373363D01*
X108683181Y-75394005D01*
X108414005Y-75663181D01*
X108352682Y-75696666D01*
X108326324Y-75699500D01*
X102665863Y-75699500D01*
X102598824Y-75679815D01*
X102553069Y-75627011D01*
X102543125Y-75557853D01*
X102548154Y-75536505D01*
X102557999Y-75506797D01*
X102568500Y-75404009D01*
X102568499Y-74927095D01*
X102588183Y-74860057D01*
X102604813Y-74839420D01*
X107531470Y-69912763D01*
X107592791Y-69879280D01*
X107651238Y-69880670D01*
X107779592Y-69915063D01*
X107967918Y-69931539D01*
X108014999Y-69935659D01*
X108015000Y-69935659D01*
X108015001Y-69935659D01*
X108054234Y-69932226D01*
X108250408Y-69915063D01*
X108478663Y-69853903D01*
X108543097Y-69823856D01*
X108612172Y-69813365D01*
X108675956Y-69841884D01*
G37*
%TD.AperFunction*%
%TA.AperFunction,Conductor*%
G36*
X100517912Y-62342185D02*
G01*
X100563667Y-62394989D01*
X100574231Y-62459102D01*
X100567500Y-62524981D01*
X100567500Y-64125001D01*
X100567501Y-64125018D01*
X100578000Y-64227796D01*
X100578001Y-64227799D01*
X100633185Y-64394331D01*
X100633189Y-64394340D01*
X100716805Y-64529904D01*
X100735245Y-64597296D01*
X100716805Y-64660096D01*
X100679627Y-64720372D01*
X100627680Y-64767097D01*
X100558717Y-64778320D01*
X100508992Y-64760815D01*
X100475167Y-64739952D01*
X100459336Y-64730187D01*
X100459331Y-64730185D01*
X100429717Y-64720372D01*
X100292797Y-64675001D01*
X100292795Y-64675000D01*
X100190010Y-64664500D01*
X99389998Y-64664500D01*
X99389980Y-64664501D01*
X99287203Y-64675000D01*
X99287200Y-64675001D01*
X99120668Y-64730185D01*
X99120663Y-64730187D01*
X98971345Y-64822287D01*
X98877327Y-64916305D01*
X98816003Y-64949789D01*
X98746312Y-64944805D01*
X98701965Y-64916304D01*
X98608345Y-64822684D01*
X98459124Y-64730643D01*
X98459119Y-64730641D01*
X98292697Y-64675494D01*
X98292690Y-64675493D01*
X98189986Y-64665000D01*
X98040000Y-64665000D01*
X98040000Y-65991000D01*
X98020315Y-66058039D01*
X97967511Y-66103794D01*
X97916000Y-66115000D01*
X96690001Y-66115000D01*
X96690001Y-66364989D01*
X96698267Y-66445899D01*
X96685497Y-66514592D01*
X96637616Y-66565476D01*
X96574909Y-66582500D01*
X95908874Y-66582500D01*
X95841835Y-66562815D01*
X95796080Y-66510011D01*
X95786136Y-66440853D01*
X95790943Y-66420182D01*
X95801581Y-66387438D01*
X95818413Y-66335636D01*
X95849500Y-66139361D01*
X95849500Y-65940639D01*
X95818413Y-65744364D01*
X95787709Y-65649866D01*
X95757006Y-65555370D01*
X95757005Y-65555367D01*
X95666786Y-65378305D01*
X95657129Y-65365013D01*
X96690000Y-65365013D01*
X96690000Y-65615000D01*
X97540000Y-65615000D01*
X97540000Y-64665000D01*
X97390027Y-64665000D01*
X97390012Y-64665001D01*
X97287302Y-64675494D01*
X97120880Y-64730641D01*
X97120875Y-64730643D01*
X96971654Y-64822684D01*
X96847684Y-64946654D01*
X96755643Y-65095875D01*
X96755641Y-65095880D01*
X96700494Y-65262302D01*
X96700493Y-65262309D01*
X96690000Y-65365013D01*
X95657129Y-65365013D01*
X95582433Y-65262203D01*
X95549981Y-65217536D01*
X95409464Y-65077019D01*
X95248694Y-64960213D01*
X95092218Y-64880484D01*
X95041423Y-64832510D01*
X95024628Y-64764689D01*
X95047165Y-64698554D01*
X95092218Y-64659515D01*
X95248694Y-64579787D01*
X95409464Y-64462981D01*
X95549981Y-64322464D01*
X95666787Y-64161694D01*
X95757005Y-63984632D01*
X95818413Y-63795636D01*
X95849500Y-63599361D01*
X95849500Y-63400639D01*
X95818413Y-63204364D01*
X95757005Y-63015368D01*
X95757005Y-63015367D01*
X95725762Y-62954052D01*
X95666787Y-62838306D01*
X95643532Y-62806298D01*
X95561683Y-62693642D01*
X95538203Y-62627836D01*
X95554028Y-62559782D01*
X95600001Y-62513370D01*
X95618796Y-62502520D01*
X95730600Y-62390716D01*
X95730600Y-62390714D01*
X95740808Y-62380507D01*
X95740812Y-62380502D01*
X95762498Y-62358817D01*
X95823822Y-62325333D01*
X95850177Y-62322500D01*
X100450873Y-62322500D01*
X100517912Y-62342185D01*
G37*
%TD.AperFunction*%
%TA.AperFunction,Conductor*%
G36*
X96640109Y-59645185D02*
G01*
X96685864Y-59697989D01*
X96696428Y-59762103D01*
X96690000Y-59825013D01*
X96690000Y-60075000D01*
X97916000Y-60075000D01*
X97983039Y-60094685D01*
X98028794Y-60147489D01*
X98040000Y-60199000D01*
X98040000Y-60451000D01*
X98020315Y-60518039D01*
X97967511Y-60563794D01*
X97916000Y-60575000D01*
X96690001Y-60575000D01*
X96690001Y-60824986D01*
X96700494Y-60927697D01*
X96710700Y-60958496D01*
X96713102Y-61028324D01*
X96677370Y-61088366D01*
X96614850Y-61119559D01*
X96592994Y-61121500D01*
X95973500Y-61121500D01*
X95906461Y-61101815D01*
X95860706Y-61049011D01*
X95849500Y-60997500D01*
X95849500Y-60860639D01*
X95818413Y-60664364D01*
X95770870Y-60518039D01*
X95757006Y-60475370D01*
X95757005Y-60475367D01*
X95666786Y-60298305D01*
X95655064Y-60282171D01*
X95549981Y-60137536D01*
X95498021Y-60085576D01*
X95464536Y-60024253D01*
X95469520Y-59954561D01*
X95498021Y-59910214D01*
X95746416Y-59661819D01*
X95807739Y-59628334D01*
X95834097Y-59625500D01*
X96573070Y-59625500D01*
X96640109Y-59645185D01*
G37*
%TD.AperFunction*%
%TD*%
M02*
